<?xml version="1.0" encoding="UTF-8" standalone="no"?>
<svg
   xmlns:dc="http://purl.org/dc/elements/1.1/"
   xmlns:cc="http://creativecommons.org/ns#"
   xmlns:rdf="http://www.w3.org/1999/02/22-rdf-syntax-ns#"
   xmlns:svg="http://www.w3.org/2000/svg"
   xmlns="http://www.w3.org/2000/svg"
   xmlns:sodipodi="http://sodipodi.sourceforge.net/DTD/sodipodi-0.dtd"
   xmlns:inkscape="http://www.inkscape.org/namespaces/inkscape"
   id="canvas"
   viewBox="285.938 389.375 1099.946 140.855"
   version="1.1"
   sodipodi:docname="hiphop-living-arxiv.svg"
   inkscape:export-filename="C:\Users\vdegu\Encyclopedia\Music\SP-Hiphop_Journey\source\_static\Title\hiphop-living-arxiv.png"
   inkscape:export-xdpi="500"
   inkscape:export-ydpi="500"
   inkscape:version="0.92.3 (2405546, 2018-03-11)">
  <metadata
     id="metadata61">
    <rdf:RDF>
      <cc:Work
         rdf:about="">
        <dc:format>image/svg+xml</dc:format>
        <dc:type
           rdf:resource="http://purl.org/dc/dcmitype/StillImage" />
      </cc:Work>
    </rdf:RDF>
  </metadata>
  <defs
     id="defs59" />
  <sodipodi:namedview
     pagecolor="#ffffff"
     bordercolor="#666666"
     borderopacity="1"
     objecttolerance="10"
     gridtolerance="10"
     guidetolerance="10"
     inkscape:pageopacity="0"
     inkscape:pageshadow="2"
     inkscape:window-width="1920"
     inkscape:window-height="1009"
     id="namedview57"
     showgrid="false"
     inkscape:zoom="0.32456137"
     inkscape:cx="549.97302"
     inkscape:cy="70.427498"
     inkscape:window-x="-8"
     inkscape:window-y="-8"
     inkscape:window-maximized="1"
     inkscape:current-layer="canvas" />
  <path
     d="M 316.98,392.62 C 315.91 393.10, 315.36 393.84, 314.45 395.65 C 313.54 397.45, 313.18 398.68, 312.42 401.67 C 311.66 404.66, 311.57 406.68, 310.63 410.59 C 309.70 414.50, 309.08 416.78, 307.75 421.20 C 306.42 425.62, 305.57 428.05, 304.00 432.70 C 302.42 437.36, 301.48 439.86, 299.88 444.48 C 298.27 449.10, 297.42 451.49, 295.99 455.80 C 294.55 460.10, 293.87 462.26, 292.70 466.00 C 291.54 469.74, 290.89 471.47, 290.16 474.50 C 289.43 477.54, 289.24 478.90, 289.04 481.16 C 288.84 483.41, 288.96 484.35, 289.18 485.77 C 289.40 487.19, 289.61 487.53, 290.14 488.26 C 290.67 488.99, 290.97 489.14, 291.82 489.41 C 292.66 489.68, 293.74 489.79, 294.36 489.61 C 294.98 489.43, 295.61 489.06, 294.94 488.51 C 294.27 487.96, 291.80 487.11, 291.01 486.84 C 290.22 486.57, 290.65 486.95, 291.00 487.15 C 291.35 487.34, 292.21 487.72, 292.76 487.82 C 293.31 487.92, 293.43 488.02, 293.76 487.63 C 294.10 487.24, 294.16 487.02, 294.43 485.88 C 294.70 484.73, 294.78 483.95, 295.12 481.92 C 295.47 479.90, 295.64 478.66, 296.14 475.75 C 296.65 472.83, 296.79 471.05, 297.64 467.33 C 298.49 463.62, 299.09 461.47, 300.37 457.18 C 301.65 452.90, 302.47 450.51, 304.05 445.92 C 305.63 441.32, 306.57 438.83, 308.26 434.20 C 309.95 429.58, 310.86 427.16, 312.49 422.80 C 314.12 418.43, 314.97 416.21, 316.42 412.38 C 317.88 408.55, 318.90 406.69, 319.76 403.64 C 320.62 400.59, 320.72 399.20, 320.72 397.12 C 320.73 395.05, 320.53 394.17, 319.78 393.27 C 319.03 392.37, 318.04 392.14, 316.98 392.62"
     style="stroke: black; fill: black;"
     id="path2" />
  <path
     d="M 327.42,416.89 C 326.51 416.99, 326.19 417.26, 325.44 418.07 C 324.69 418.88, 324.27 419.37, 323.67 420.95 C 323.07 422.53, 322.89 423.63, 322.45 425.97 C 322.01 428.31, 321.95 429.76, 321.46 432.63 C 320.97 435.51, 320.75 437.20, 320.02 440.34 C 319.29 443.48, 318.76 445.19, 317.80 448.34 C 316.84 451.49, 316.23 453.16, 315.22 456.10 C 314.20 459.04, 313.57 460.48, 312.73 463.03 C 311.90 465.58, 311.56 466.84, 311.04 468.85 C 310.53 470.86, 310.24 471.74, 310.16 473.08 C 310.07 474.42, 310.38 474.85, 310.60 475.55 C 310.83 476.25, 310.95 476.27, 311.29 476.58 C 311.63 476.89, 311.84 477.08, 312.32 477.11 C 312.81 477.15, 313.05 477.20, 313.72 476.76 C 314.39 476.32, 314.93 476.07, 315.67 474.91 C 316.41 473.75, 316.66 472.88, 317.43 470.95 C 318.21 469.02, 318.70 467.82, 319.54 465.27 C 320.38 462.72, 320.73 461.18, 321.64 458.19 C 322.55 455.20, 323.09 453.50, 324.12 450.31 C 325.14 447.12, 325.69 445.39, 326.74 442.24 C 327.79 439.09, 328.45 437.45, 329.36 434.55 C 330.27 431.66, 330.79 430.19, 331.31 427.76 C 331.83 425.34, 331.99 424.12, 331.97 422.42 C 331.95 420.71, 331.62 420.20, 331.22 419.23 C 330.83 418.27, 330.77 418.06, 330.01 417.59 C 329.25 417.12, 328.33 416.80, 327.42 416.89"
     style="stroke: black; fill: black;"
     id="path4" />
  <path
     d="M 292.84,450.35 C 293.41 451.11, 293.81 451.31, 295.06 451.60 C 296.31 451.88, 297.10 451.96, 299.11 451.77 C 301.11 451.58, 302.40 451.33, 305.09 450.64 C 307.78 449.94, 309.41 449.13, 312.56 448.30 C 315.71 447.46, 317.52 447.08, 320.83 446.45 C 324.14 445.82, 325.91 445.53, 329.09 445.15 C 332.28 444.76, 333.93 444.76, 336.75 444.51 C 339.57 444.25, 341.04 444.12, 343.19 443.86 C 345.34 443.60, 346.20 443.56, 347.51 443.19 C 348.83 442.83, 349.15 442.46, 349.77 442.04 C 350.39 441.63, 350.43 441.55, 350.63 441.12 C 350.83 440.69, 350.91 440.36, 350.77 439.89 C 350.62 439.42, 350.56 439.25, 349.91 438.77 C 349.26 438.30, 348.91 437.89, 347.50 437.53 C 346.08 437.18, 345.12 437.02, 342.83 437.00 C 340.53 436.97, 338.94 437.06, 336.02 437.40 C 333.09 437.74, 331.45 438.17, 328.19 438.68 C 324.94 439.18, 323.14 439.45, 319.75 439.93 C 316.35 440.42, 314.51 440.73, 311.21 441.10 C 307.91 441.47, 306.07 441.33, 303.24 441.79 C 300.41 442.25, 299.00 442.61, 297.05 443.39 C 295.09 444.17, 294.43 444.80, 293.47 445.69 C 292.50 446.57, 292.33 446.88, 292.20 447.81 C 292.08 448.74, 292.27 449.59, 292.84 450.35"
     style="stroke: black; fill: black;"
     id="path6" />
  <path
     d="M 374.22,440.01 C 373.24 439.90, 372.75 440.04, 371.58 440.86 C 370.41 441.69, 369.62 442.34, 368.37 444.15 C 367.12 445.97, 366.48 447.34, 365.33 449.94 C 364.18 452.53, 363.80 454.29, 362.63 457.14 C 361.45 459.99, 360.55 461.51, 359.44 464.18 C 358.34 466.85, 357.79 468.25, 357.10 470.48 C 356.41 472.71, 356.13 473.76, 355.98 475.33 C 355.84 476.91, 356.11 477.48, 356.36 478.36 C 356.62 479.23, 356.81 479.39, 357.26 479.71 C 357.71 480.03, 358.09 480.03, 358.61 479.94 C 359.13 479.84, 359.25 479.77, 359.86 479.22 C 360.47 478.67, 360.89 478.41, 361.65 477.18 C 362.42 475.96, 362.71 475.07, 363.69 473.10 C 364.67 471.14, 365.32 469.88, 366.54 467.35 C 367.76 464.83, 368.36 463.17, 369.77 460.48 C 371.19 457.80, 372.32 456.39, 373.61 453.92 C 374.89 451.45, 375.54 450.12, 376.22 448.12 C 376.90 446.13, 376.96 445.26, 377.01 443.92 C 377.06 442.58, 377.03 442.20, 376.47 441.42 C 375.91 440.64, 375.20 440.12, 374.22 440.01"
     style="stroke: black; fill: black;"
     id="path8" />
  <path
     d="M 391.42,409.52 C 392.43 409.11, 392.74 408.67, 392.27 408.93 C 391.79 409.18, 390.21 410.05, 389.03 410.79 C 387.85 411.54, 387.05 412.16, 386.37 412.64 C 385.70 413.13, 385.62 413.19, 385.64 413.23 C 385.67 413.28, 386.15 412.99, 386.50 412.87 C 386.85 412.75, 386.88 412.73, 387.40 412.64 C 387.92 412.55, 388.19 412.69, 389.10 412.43 C 390.01 412.18, 391.09 411.78, 391.94 411.36 C 392.78 410.94, 392.94 410.77, 393.32 410.31 C 393.70 409.85, 393.68 409.61, 393.81 409.08 C 393.95 408.54, 394.25 408.01, 393.99 407.62 C 393.73 407.24, 393.44 406.96, 392.50 407.16 C 391.56 407.36, 390.57 407.87, 389.30 408.60 C 388.03 409.34, 386.56 410.36, 386.15 410.82 C 385.73 411.29, 386.18 411.20, 387.23 410.94 C 388.29 410.68, 390.41 409.92, 391.42 409.52"
     style="stroke: black; fill: black;"
     id="path10" />
  <path
     d="M 414.08,443.75 C 413.05 443.77, 412.54 444.08, 411.33 445.15 C 410.12 446.23, 409.25 446.93, 408.02 449.12 C 406.78 451.31, 406.46 453.01, 405.14 456.11 C 403.83 459.20, 403.12 461.09, 401.46 464.61 C 399.79 468.14, 398.75 470.10, 396.83 473.74 C 394.91 477.38, 393.81 479.35, 391.87 482.83 C 389.93 486.32, 388.92 488.13, 387.11 491.18 C 385.31 494.23, 384.02 495.61, 382.83 498.08 C 381.63 500.55, 381.23 501.91, 381.14 503.55 C 381.06 505.19, 381.51 505.82, 382.40 506.29 C 383.29 506.76, 384.23 506.80, 385.59 505.90 C 386.96 505.01, 388.02 504.21, 389.23 501.81 C 390.45 499.41, 390.39 497.31, 391.66 493.90 C 392.94 490.49, 393.74 488.48, 395.61 484.77 C 397.48 481.06, 398.62 479.05, 401.00 475.36 C 403.39 471.67, 404.79 469.76, 407.52 466.31 C 410.26 462.86, 411.80 461.11, 414.67 458.10 C 417.55 455.09, 419.07 453.60, 421.90 451.27 C 424.73 448.94, 426.29 447.98, 428.83 446.44 C 431.38 444.90, 432.61 444.36, 434.62 443.57 C 436.62 442.77, 437.44 442.56, 438.85 442.48 C 440.27 442.39, 440.82 442.65, 441.69 443.16 C 442.56 443.67, 442.80 444.09, 443.20 445.03 C 443.61 445.97, 443.73 446.54, 443.71 447.85 C 443.69 449.16, 443.65 449.95, 443.09 451.58 C 442.54 453.21, 442.12 454.14, 440.94 456.01 C 439.76 457.87, 439.00 458.98, 437.19 460.91 C 435.38 462.83, 434.21 463.93, 431.88 465.64 C 429.56 467.34, 428.07 468.17, 425.57 469.43 C 423.06 470.68, 421.61 471.13, 419.35 471.92 C 417.10 472.72, 415.97 473.04, 414.31 473.40 C 412.65 473.76, 411.99 473.71, 411.05 473.72 C 410.11 473.72, 409.94 473.50, 409.59 473.42 C 409.24 473.33, 409.29 473.24, 409.30 473.30 C 409.31 473.35, 409.55 473.55, 409.64 473.69 C 409.72 473.83, 409.83 474.14, 409.72 474.00 C 409.61 473.85, 409.58 473.58, 409.07 472.98 C 408.56 472.38, 407.86 471.43, 407.18 471.00 C 406.50 470.57, 406.11 470.52, 405.66 470.82 C 405.20 471.11, 404.98 471.66, 404.89 472.48 C 404.80 473.30, 404.84 473.94, 405.21 474.90 C 405.57 475.86, 405.78 476.41, 406.72 477.28 C 407.66 478.15, 408.24 478.72, 409.90 479.26 C 411.57 479.80, 412.68 480.06, 415.03 479.98 C 417.37 479.90, 418.86 479.70, 421.62 478.87 C 424.37 478.03, 425.93 477.29, 428.81 475.80 C 431.69 474.32, 433.27 473.37, 436.03 471.46 C 438.78 469.55, 440.29 468.50, 442.60 466.24 C 444.92 463.98, 446.03 462.67, 447.59 460.16 C 449.15 457.64, 449.74 456.24, 450.39 453.66 C 451.03 451.07, 451.16 449.62, 450.82 447.24 C 450.47 444.86, 449.95 443.59, 448.68 441.74 C 447.42 439.90, 446.45 439.05, 444.48 438.02 C 442.52 436.99, 441.27 436.65, 438.85 436.57 C 436.43 436.50, 435.04 436.66, 432.38 437.63 C 429.72 438.59, 428.34 439.47, 425.55 441.41 C 422.76 443.34, 421.31 444.62, 418.42 447.29 C 415.53 449.97, 414.02 451.55, 411.10 454.76 C 408.17 457.97, 406.62 459.77, 403.78 463.34 C 400.94 466.91, 399.50 468.87, 396.90 472.61 C 394.30 476.34, 393.09 478.38, 390.78 482.02 C 388.47 485.66, 387.33 487.58, 385.35 490.80 C 383.37 494.03, 381.86 495.54, 380.88 498.14 C 379.89 500.75, 380.10 502.12, 380.42 503.83 C 380.75 505.53, 381.43 506.22, 382.49 506.65 C 383.56 507.07, 384.43 507.01, 385.75 505.94 C 387.07 504.87, 387.80 503.70, 389.10 501.30 C 390.41 498.89, 390.78 497.11, 392.28 493.93 C 393.78 490.75, 394.74 488.93, 396.61 485.42 C 398.48 481.90, 399.58 479.95, 401.62 476.36 C 403.65 472.77, 404.76 470.83, 406.79 467.46 C 408.81 464.09, 409.96 462.40, 411.74 459.50 C 413.51 456.61, 414.64 455.29, 415.67 452.99 C 416.70 450.70, 416.73 449.62, 416.90 448.03 C 417.06 446.44, 417.06 445.90, 416.50 445.04 C 415.94 444.19, 415.12 443.72, 414.08 443.75"
     style="stroke: black; fill: black;"
     id="path12" />
  <path
     d="M 495.50,406.07 C 494.48 406.18, 494.07 406.55, 492.89 407.74 C 491.72 408.94, 490.81 409.62, 489.63 412.04 C 488.45 414.45, 488.34 416.41, 487.01 419.83 C 485.68 423.24, 484.83 425.28, 482.99 429.11 C 481.14 432.94, 479.93 435.08, 477.78 438.99 C 475.62 442.90, 474.37 444.98, 472.21 448.64 C 470.05 452.30, 468.90 454.16, 466.98 457.29 C 465.06 460.42, 463.82 461.79, 462.61 464.30 C 461.40 466.81, 461.02 468.02, 460.93 469.83 C 460.84 471.63, 461.17 472.43, 462.16 473.33 C 463.14 474.23, 464.19 474.57, 465.85 474.33 C 467.52 474.10, 468.65 473.67, 470.50 472.16 C 472.34 470.64, 473.03 469.13, 475.09 466.74 C 477.15 464.36, 478.25 462.71, 480.80 460.23 C 483.35 457.75, 484.97 456.42, 487.83 454.34 C 490.69 452.25, 492.37 451.27, 495.08 449.82 C 497.79 448.37, 499.26 447.93, 501.36 447.07 C 503.47 446.22, 504.38 445.85, 505.62 445.54 C 506.86 445.24, 507.16 445.21, 507.57 445.55 C 507.97 445.88, 507.83 446.17, 507.63 447.20 C 507.42 448.23, 507.11 448.95, 506.53 450.70 C 505.95 452.46, 505.54 453.67, 504.71 455.96 C 503.89 458.25, 503.31 459.70, 502.41 462.15 C 501.51 464.61, 500.92 465.99, 500.21 468.25 C 499.50 470.50, 499.17 471.63, 498.86 473.43 C 498.55 475.22, 498.48 476.00, 498.64 477.21 C 498.80 478.43, 499.19 478.90, 499.66 479.50 C 500.13 480.10, 500.47 480.20, 500.97 480.23 C 501.46 480.25, 501.77 479.83, 502.13 479.61 C 502.50 479.39, 502.45 479.44, 502.80 479.13 C 503.16 478.81, 503.45 478.78, 503.92 478.02 C 504.38 477.27, 504.46 476.73, 505.12 475.34 C 505.78 473.94, 506.22 473.05, 507.21 471.05 C 508.20 469.05, 508.95 467.79, 510.09 465.34 C 511.22 462.88, 512.02 461.43, 512.89 458.78 C 513.77 456.12, 514.30 454.62, 514.46 452.08 C 514.62 449.53, 514.50 448.10, 513.70 446.03 C 512.90 443.96, 512.10 442.94, 510.45 441.72 C 508.80 440.51, 507.71 440.14, 505.45 439.95 C 503.18 439.75, 501.81 439.88, 499.11 440.74 C 496.41 441.59, 494.93 442.51, 491.95 444.23 C 488.98 445.95, 487.34 447.15, 484.24 449.36 C 481.15 451.56, 479.46 452.93, 476.48 455.26 C 473.49 457.59, 471.80 458.82, 469.32 460.99 C 466.84 463.15, 465.45 464.20, 464.08 466.09 C 462.71 467.98, 462.57 469.12, 462.46 470.43 C 462.35 471.75, 462.87 472.40, 463.53 472.65 C 464.18 472.90, 464.73 472.75, 465.75 471.68 C 466.76 470.61, 467.38 469.65, 468.60 467.31 C 469.83 464.97, 470.26 463.22, 471.86 459.99 C 473.46 456.76, 474.54 454.85, 476.60 451.15 C 478.66 447.45, 479.91 445.36, 482.16 441.48 C 484.42 437.59, 485.70 435.46, 487.89 431.73 C 490.09 428.00, 491.25 426.05, 493.15 422.82 C 495.06 419.59, 496.35 418.11, 497.43 415.60 C 498.50 413.09, 498.41 411.95, 498.52 410.27 C 498.64 408.58, 498.61 408.00, 498.01 407.16 C 497.40 406.32, 496.52 405.95, 495.50 406.07"
     style="stroke: black; fill: black;"
     id="path14" />
  <path
     d="M 561.04,450.18 C 561.14 449.14, 560.86 448.45, 559.92 447.53 C 558.99 446.60, 558.18 446.00, 556.36 445.54 C 554.55 445.08, 553.22 444.94, 550.85 445.21 C 548.48 445.47, 547.13 445.87, 544.51 446.86 C 541.88 447.84, 540.40 448.53, 537.73 450.13 C 535.07 451.72, 533.60 452.77, 531.19 454.82 C 528.78 456.87, 527.46 458.05, 525.70 460.37 C 523.94 462.68, 523.16 464.01, 522.39 466.40 C 521.61 468.79, 521.43 470.09, 521.82 472.31 C 522.22 474.54, 522.79 475.80, 524.36 477.52 C 525.94 479.23, 527.20 480.01, 529.71 480.87 C 532.21 481.73, 533.84 481.96, 536.90 481.83 C 539.95 481.71, 541.73 481.16, 544.97 480.26 C 548.22 479.35, 549.97 478.66, 553.11 477.33 C 556.25 476.00, 557.90 475.27, 560.69 473.60 C 563.47 471.93, 564.92 471.00, 567.03 468.97 C 569.14 466.93, 570.03 465.69, 571.24 463.43 C 572.45 461.18, 572.83 459.93, 573.08 457.71 C 573.33 455.48, 573.15 454.26, 572.50 452.30 C 571.85 450.34, 571.16 449.20, 569.83 447.91 C 568.49 446.62, 567.27 446.08, 565.81 445.85 C 564.35 445.62, 563.32 446.03, 562.52 446.77 C 561.72 447.51, 561.65 448.56, 561.80 449.55 C 561.95 450.54, 562.61 451.02, 563.29 451.71 C 563.97 452.40, 564.50 452.47, 565.19 453.02 C 565.88 453.57, 566.37 453.69, 566.73 454.45 C 567.10 455.22, 567.25 455.72, 567.02 456.85 C 566.80 457.98, 566.57 458.70, 565.62 460.09 C 564.66 461.48, 563.96 462.30, 562.25 463.80 C 560.54 465.30, 559.43 466.17, 557.07 467.59 C 554.72 469.00, 553.24 469.79, 550.48 470.87 C 547.71 471.95, 546.02 472.43, 543.23 472.98 C 540.43 473.53, 538.87 473.46, 536.50 473.60 C 534.13 473.74, 533.03 473.79, 531.39 473.68 C 529.74 473.57, 529.12 473.49, 528.29 473.07 C 527.46 472.66, 527.24 472.43, 527.24 471.61 C 527.24 470.79, 527.46 470.27, 528.29 468.99 C 529.13 467.70, 529.84 466.82, 531.41 465.20 C 532.98 463.58, 534.03 462.49, 536.12 460.90 C 538.20 459.30, 539.57 458.48, 541.83 457.23 C 544.09 455.98, 545.42 455.41, 547.44 454.65 C 549.45 453.89, 550.37 453.67, 551.90 453.44 C 553.43 453.21, 554.01 453.48, 555.11 453.48 C 556.20 453.48, 556.49 453.57, 557.35 453.43 C 558.22 453.28, 558.70 453.41, 559.43 452.76 C 560.17 452.11, 560.94 451.23, 561.04 450.18"
     style="stroke: black; fill: black;"
     id="path16" />
  <path
     d="M 599.01,451.02 C 598.00 451.12, 597.64 451.45, 596.53 452.53 C 595.41 453.61, 594.63 454.27, 593.43 456.40 C 592.24 458.53, 591.89 460.16, 590.58 463.17 C 589.27 466.17, 588.54 468.04, 586.89 471.43 C 585.23 474.82, 584.17 476.68, 582.30 480.13 C 580.43 483.58, 579.38 485.39, 577.54 488.67 C 575.70 491.95, 574.74 493.64, 573.11 496.53 C 571.49 499.41, 570.55 500.76, 569.42 503.11 C 568.29 505.46, 567.89 506.58, 567.47 508.26 C 567.06 509.93, 567.27 510.53, 567.35 511.47 C 567.43 512.42, 567.54 512.56, 567.89 512.96 C 568.24 513.37, 568.56 513.51, 569.10 513.50 C 569.63 513.49, 569.82 513.45, 570.57 512.90 C 571.31 512.36, 571.82 512.11, 572.82 510.76 C 573.82 509.41, 574.40 508.42, 575.56 506.15 C 576.72 503.87, 577.22 502.32, 578.62 499.37 C 580.01 496.42, 580.81 494.68, 582.54 491.39 C 584.27 488.10, 585.30 486.31, 587.27 482.92 C 589.23 479.53, 590.35 477.69, 592.36 474.45 C 594.36 471.20, 595.54 469.54, 597.30 466.69 C 599.06 463.84, 600.17 462.52, 601.17 460.20 C 602.16 457.87, 602.21 456.70, 602.29 455.06 C 602.36 453.42, 602.22 452.80, 601.56 451.99 C 600.91 451.18, 600.02 450.91, 599.01 451.02"
     style="stroke: black; fill: black;"
     id="path18" />
  <path
     d="M 601.72,446.93 C 602.68 447.34, 603.19 447.01, 604.37 446.81 C 605.55 446.62, 606.14 446.38, 607.64 445.96 C 609.14 445.55, 610.00 445.10, 611.86 444.72 C 613.72 444.34, 614.86 444.15, 616.94 444.07 C 619.01 443.98, 620.23 444.04, 622.25 444.29 C 624.28 444.54, 625.37 444.78, 627.05 445.32 C 628.72 445.86, 629.50 446.27, 630.65 446.99 C 631.79 447.72, 632.26 448.13, 632.76 448.93 C 633.26 449.72, 633.36 450.07, 633.16 450.97 C 632.95 451.87, 632.70 452.30, 631.74 453.42 C 630.78 454.54, 630.05 455.16, 628.36 456.55 C 626.66 457.94, 625.61 458.85, 623.26 460.37 C 620.91 461.89, 619.42 462.81, 616.60 464.14 C 613.78 465.48, 612.07 466.12, 609.15 467.05 C 606.24 467.98, 604.59 468.17, 602.02 468.80 C 599.44 469.42, 598.18 469.75, 596.27 470.18 C 594.37 470.62, 593.63 470.60, 592.50 470.96 C 591.38 471.32, 591.17 471.65, 590.65 471.99 C 590.14 472.34, 590.17 472.34, 589.93 472.70 C 589.70 473.05, 589.42 473.30, 589.46 473.78 C 589.50 474.26, 589.52 474.56, 590.14 475.10 C 590.75 475.63, 591.14 476.12, 592.54 476.46 C 593.94 476.81, 594.88 476.92, 597.12 476.82 C 599.35 476.73, 600.87 476.64, 603.71 475.99 C 606.56 475.34, 608.19 474.65, 611.33 473.56 C 614.47 472.47, 616.25 471.84, 619.43 470.52 C 622.60 469.19, 624.36 468.53, 627.20 466.95 C 630.03 465.36, 631.50 464.52, 633.62 462.58 C 635.73 460.65, 636.64 459.48, 637.79 457.27 C 638.94 455.07, 639.29 453.80, 639.38 451.57 C 639.48 449.33, 639.20 448.09, 638.28 446.10 C 637.36 444.12, 636.52 443.17, 634.79 441.67 C 633.07 440.16, 631.92 439.55, 629.66 438.56 C 627.40 437.58, 626.05 437.26, 623.51 436.75 C 620.96 436.25, 619.58 436.11, 616.94 436.02 C 614.30 435.93, 612.81 435.87, 610.30 436.30 C 607.80 436.73, 606.37 437.15, 604.41 438.17 C 602.46 439.18, 601.48 440.03, 600.52 441.36 C 599.55 442.68, 599.35 443.67, 599.59 444.78 C 599.83 445.90, 600.76 446.53, 601.72 446.93"
     style="stroke: black; fill: black;"
     id="path20" />
  <path
     d="M 769.22,401.86 C 768.23 401.83, 767.88 402.12, 766.66 403.01 C 765.44 403.91, 764.57 404.33, 763.12 406.33 C 761.67 408.33, 761.20 409.99, 759.41 413.00 C 757.62 416.01, 756.60 417.84, 754.18 421.37 C 751.77 424.89, 750.21 426.87, 747.33 430.64 C 744.45 434.40, 742.77 436.44, 739.78 440.19 C 736.80 443.94, 735.16 445.90, 732.40 449.38 C 729.64 452.87, 728.27 454.58, 725.98 457.59 C 723.69 460.60, 722.39 461.86, 720.94 464.44 C 719.50 467.02, 719.14 468.27, 718.75 470.49 C 718.37 472.71, 718.37 473.72, 719.00 475.55 C 719.64 477.38, 720.28 478.36, 721.94 479.65 C 723.60 480.93, 724.81 481.49, 727.30 481.96 C 729.80 482.44, 731.27 482.35, 734.42 482.04 C 737.57 481.72, 739.36 481.10, 743.03 480.39 C 746.71 479.68, 748.79 479.25, 752.79 478.49 C 756.80 477.73, 758.99 477.29, 763.06 476.59 C 767.12 475.89, 769.31 475.52, 773.13 474.97 C 776.96 474.42, 778.89 474.18, 782.17 473.83 C 785.46 473.49, 786.98 473.53, 789.56 473.23 C 792.14 472.94, 793.33 472.80, 795.06 472.35 C 796.79 471.90, 797.30 471.53, 798.21 470.99 C 799.13 470.46, 799.38 470.25, 799.62 469.67 C 799.87 469.08, 799.80 468.58, 799.43 468.07 C 799.07 467.55, 798.81 467.44, 797.82 467.10 C 796.83 466.76, 796.30 466.46, 794.49 466.35 C 792.68 466.24, 791.41 466.24, 788.78 466.55 C 786.14 466.86, 784.62 467.30, 781.31 467.91 C 778.01 468.52, 776.09 468.91, 772.27 469.60 C 768.44 470.28, 766.25 470.66, 762.17 471.33 C 758.10 471.99, 755.89 472.38, 751.89 472.92 C 747.90 473.45, 745.79 473.76, 742.19 474.00 C 738.60 474.25, 736.77 474.08, 733.93 474.14 C 731.09 474.20, 729.88 474.22, 727.99 474.30 C 726.10 474.39, 725.43 474.58, 724.48 474.56 C 723.53 474.55, 723.34 474.72, 723.25 474.22 C 723.16 473.71, 723.35 473.38, 724.02 472.05 C 724.68 470.73, 725.31 469.86, 726.57 467.58 C 727.84 465.29, 728.43 463.69, 730.35 460.63 C 732.28 457.57, 733.57 455.79, 736.18 452.28 C 738.78 448.77, 740.40 446.79, 743.38 443.06 C 746.37 439.33, 748.06 437.31, 751.10 433.65 C 754.15 429.98, 755.78 428.05, 758.59 424.74 C 761.40 421.42, 762.84 419.83, 765.15 417.08 C 767.45 414.34, 768.78 413.20, 770.12 411.03 C 771.47 408.86, 771.58 407.80, 771.87 406.23 C 772.17 404.66, 772.15 404.05, 771.62 403.18 C 771.09 402.30, 770.21 401.90, 769.22 401.86"
     style="stroke: black; fill: black;"
     id="path22" />
  <path
     d="M 826.93,444.19 C 825.92 444.37, 825.63 444.78, 824.59 445.84 C 823.54 446.89, 822.89 447.59, 821.70 449.47 C 820.50 451.35, 819.82 452.78, 818.60 455.24 C 817.37 457.70, 816.72 459.25, 815.56 461.77 C 814.40 464.28, 813.62 465.60, 812.81 467.81 C 812.01 470.01, 811.72 471.14, 811.53 472.80 C 811.33 474.45, 811.37 475.26, 811.82 476.08 C 812.28 476.90, 812.92 477.12, 813.81 476.91 C 814.70 476.70, 815.14 476.16, 816.26 475.04 C 817.38 473.92, 818.07 473.15, 819.41 471.29 C 820.75 469.43, 821.48 468.11, 822.95 465.75 C 824.42 463.39, 825.40 461.97, 826.75 459.48 C 828.10 456.98, 828.92 455.54, 829.70 453.28 C 830.47 451.01, 830.64 449.80, 830.63 448.14 C 830.62 446.47, 830.38 445.74, 829.64 444.95 C 828.90 444.16, 827.94 444.02, 826.93 444.19"
     style="stroke: black; fill: black;"
     id="path24" />
  <path
     d="M 843.49,411.67 C 844.23 411.60, 844.26 411.18, 843.55 410.98 C 842.83 410.78, 840.63 410.60, 839.89 410.68 C 839.15 410.76, 839.11 411.17, 839.83 411.37 C 840.55 411.57, 842.75 411.75, 843.49 411.67"
     style="stroke: black; fill: black;"
     id="path26" />
  <path
     d="M 862.15,440.44 C 861.14 440.71, 860.82 441.24, 860.01 442.34 C 859.20 443.43, 858.81 444.12, 858.09 445.92 C 857.36 447.72, 857.05 448.99, 856.38 451.32 C 855.71 453.65, 855.39 455.04, 854.75 457.58 C 854.11 460.11, 853.65 461.52, 853.19 463.97 C 852.72 466.43, 852.41 467.70, 852.40 469.85 C 852.40 472.00, 852.44 473.09, 853.17 474.74 C 853.90 476.38, 854.56 477.22, 856.04 478.09 C 857.52 478.97, 858.64 479.26, 860.55 479.11 C 862.47 478.95, 863.56 478.56, 865.60 477.31 C 867.65 476.07, 868.67 475.05, 870.79 472.88 C 872.92 470.71, 873.90 469.11, 876.23 466.45 C 878.55 463.79, 879.94 462.24, 882.42 459.56 C 884.90 456.88, 886.30 455.43, 888.63 453.06 C 890.96 450.68, 892.35 449.70, 894.08 447.70 C 895.80 445.70, 896.32 444.65, 897.24 443.06 C 898.17 441.47, 898.71 440.74, 898.70 439.75 C 898.68 438.76, 898.19 438.16, 897.17 438.09 C 896.15 438.03, 895.23 438.46, 893.60 439.42 C 891.97 440.38, 890.96 441.06, 889.03 442.89 C 887.10 444.73, 886.17 446.15, 883.93 448.61 C 881.69 451.07, 880.35 452.60, 877.82 455.19 C 875.29 457.79, 873.84 459.28, 871.28 461.60 C 868.72 463.91, 867.15 464.92, 865.02 466.76 C 862.89 468.60, 861.94 469.49, 860.63 470.82 C 859.32 472.14, 858.98 472.65, 858.47 473.38 C 857.96 474.11, 858.06 474.39, 858.07 474.45 C 858.08 474.50, 858.27 474.43, 858.52 473.67 C 858.76 472.91, 858.88 472.22, 859.31 470.65 C 859.74 469.09, 859.98 467.99, 860.67 465.86 C 861.36 463.73, 861.89 462.41, 862.75 460.01 C 863.61 457.62, 864.25 456.26, 864.98 453.87 C 865.71 451.49, 866.15 450.13, 866.42 448.09 C 866.69 446.05, 866.62 445.11, 866.34 443.68 C 866.06 442.26, 865.88 441.61, 865.04 440.96 C 864.20 440.32, 863.16 440.17, 862.15 440.44"
     style="stroke: black; fill: black;"
     id="path28" />
  <path
     d="M 918.59,440.59 C 917.59 440.64, 917.28 440.93, 916.15 441.85 C 915.03 442.76, 914.28 443.39, 912.97 445.17 C 911.65 446.94, 910.94 448.34, 909.58 450.72 C 908.22 453.11, 907.47 454.62, 906.18 457.10 C 904.89 459.58, 904.03 460.88, 903.13 463.14 C 902.22 465.40, 901.85 466.64, 901.66 468.40 C 901.47 470.15, 901.66 471.08, 902.18 471.92 C 902.71 472.75, 903.41 472.86, 904.28 472.58 C 905.15 472.30, 905.47 471.69, 906.55 470.53 C 907.63 469.38, 908.32 468.62, 909.69 466.80 C 911.06 464.98, 911.82 463.71, 913.40 461.44 C 914.97 459.18, 916.07 457.84, 917.55 455.46 C 919.03 453.07, 919.91 451.67, 920.79 449.51 C 921.66 447.34, 921.85 446.20, 921.93 444.61 C 922.00 443.03, 921.81 442.38, 921.15 441.58 C 920.48 440.77, 919.59 440.53, 918.59 440.59"
     style="stroke: black; fill: black;"
     id="path30" />
  <path
     d="M 934.38,412.92 C 935.32 412.34, 935.58 411.99, 935.39 411.91 C 935.19 411.82, 934.31 412.17, 933.40 412.48 C 932.50 412.80, 931.71 413.01, 930.86 413.46 C 930.01 413.92, 929.18 414.49, 929.15 414.76 C 929.12 415.02, 929.64 415.16, 930.69 414.79 C 931.73 414.42, 933.44 413.49, 934.38 412.92"
     style="stroke: black; fill: black;"
     id="path32" />
  <path
     d="M 945.66,445.16 C 944.60 445.36, 944.24 445.94, 943.18 447.05 C 942.13 448.16, 941.56 448.89, 940.40 450.72 C 939.24 452.55, 938.61 453.92, 937.39 456.20 C 936.16 458.48, 935.50 459.87, 934.30 462.14 C 933.10 464.40, 932.24 465.57, 931.39 467.50 C 930.55 469.44, 930.05 470.37, 930.07 471.80 C 930.08 473.24, 930.50 474.01, 931.47 474.68 C 932.44 475.34, 933.41 475.58, 934.91 475.12 C 936.41 474.66, 937.34 474.09, 938.99 472.36 C 940.63 470.63, 941.13 468.99, 943.15 466.47 C 945.18 463.95, 946.40 462.32, 949.11 459.75 C 951.82 457.19, 953.57 455.82, 956.69 453.65 C 959.81 451.49, 961.65 450.42, 964.71 448.93 C 967.78 447.44, 969.50 447.06, 972.00 446.22 C 974.49 445.37, 975.60 445.02, 977.18 444.70 C 978.76 444.39, 979.26 444.35, 979.89 444.62 C 980.51 444.89, 980.44 445.12, 980.30 446.05 C 980.15 446.99, 979.80 447.64, 979.15 449.29 C 978.51 450.95, 978.02 452.11, 977.07 454.33 C 976.11 456.56, 975.46 457.97, 974.37 460.42 C 973.27 462.87, 972.51 464.27, 971.59 466.57 C 970.67 468.86, 970.16 470.03, 969.78 471.91 C 969.39 473.78, 969.46 474.69, 969.64 475.93 C 969.83 477.17, 970.13 477.64, 970.71 478.11 C 971.28 478.59, 971.87 478.52, 972.51 478.30 C 973.16 478.08, 973.25 477.79, 973.94 477.00 C 974.63 476.21, 975.05 475.77, 975.97 474.36 C 976.88 472.95, 977.32 471.98, 978.51 469.93 C 979.70 467.88, 980.61 466.61, 981.93 464.12 C 983.25 461.63, 984.13 460.16, 985.10 457.48 C 986.06 454.80, 986.60 453.28, 986.75 450.73 C 986.90 448.17, 986.72 446.75, 985.84 444.70 C 984.97 442.65, 984.15 441.66, 982.36 440.48 C 980.57 439.31, 979.39 438.94, 976.90 438.82 C 974.40 438.70, 972.87 438.89, 969.89 439.87 C 966.90 440.84, 965.28 441.88, 961.99 443.69 C 958.71 445.50, 956.84 446.65, 953.46 448.91 C 950.07 451.18, 948.25 452.58, 945.08 455.02 C 941.91 457.46, 940.21 458.81, 937.59 461.12 C 934.97 463.44, 933.44 464.52, 931.96 466.59 C 930.49 468.66, 930.28 469.91, 930.21 471.48 C 930.14 473.05, 930.73 473.83, 931.60 474.44 C 932.48 475.05, 933.34 475.12, 934.58 474.53 C 935.82 473.94, 936.42 473.11, 937.79 471.50 C 939.16 469.89, 939.92 468.65, 941.42 466.47 C 942.93 464.29, 943.95 462.98, 945.31 460.59 C 946.68 458.19, 947.46 456.73, 948.26 454.51 C 949.06 452.28, 949.25 451.13, 949.30 449.44 C 949.34 447.75, 949.21 446.90, 948.48 446.05 C 947.75 445.19, 946.72 444.96, 945.66 445.16"
     style="stroke: black; fill: black;"
     id="path34" />
  <path
     d="M 1030.68,451.72 C 1030.97 450.72, 1030.80 450.05, 1030.09 449.09 C 1029.39 448.13, 1028.72 447.52, 1027.16 446.93 C 1025.61 446.33, 1024.43 446.08, 1022.33 446.13 C 1020.22 446.17, 1019.00 446.46, 1016.65 447.15 C 1014.30 447.84, 1012.98 448.36, 1010.57 449.58 C 1008.16 450.79, 1006.78 451.60, 1004.60 453.25 C 1002.42 454.89, 1001.27 455.90, 999.68 457.79 C 998.08 459.69, 997.32 460.76, 996.63 462.73 C 995.94 464.70, 995.82 465.82, 996.22 467.64 C 996.63 469.46, 997.21 470.52, 998.66 471.81 C 1000.11 473.11, 1001.27 473.68, 1003.47 474.11 C 1005.67 474.53, 1007.08 474.37, 1009.67 473.93 C 1012.25 473.50, 1013.67 472.94, 1016.38 471.93 C 1019.08 470.92, 1020.58 470.20, 1023.18 468.88 C 1025.78 467.56, 1027.20 466.75, 1029.38 465.32 C 1031.56 463.90, 1032.64 463.12, 1034.09 461.78 C 1035.54 460.44, 1036.21 459.77, 1036.63 458.63 C 1037.05 457.50, 1036.85 456.75, 1036.19 456.10 C 1035.53 455.44, 1034.52 455.04, 1033.33 455.36 C 1032.15 455.67, 1031.29 456.20, 1030.25 457.66 C 1029.21 459.11, 1028.87 460.34, 1028.13 462.64 C 1027.40 464.95, 1027.18 466.43, 1026.58 469.18 C 1025.98 471.93, 1025.79 473.46, 1025.14 476.39 C 1024.50 479.32, 1024.15 480.90, 1023.35 483.84 C 1022.54 486.78, 1022.13 488.28, 1021.11 491.09 C 1020.09 493.90, 1019.52 495.31, 1018.24 497.89 C 1016.97 500.48, 1016.29 501.76, 1014.76 504.01 C 1013.23 506.27, 1012.40 507.30, 1010.61 509.17 C 1008.82 511.05, 1007.81 511.89, 1005.79 513.38 C 1003.77 514.86, 1002.69 515.53, 1000.53 516.60 C 998.37 517.67, 997.21 518.07, 994.98 518.71 C 992.74 519.35, 991.53 519.55, 989.37 519.80 C 987.21 520.06, 986.08 520.08, 984.16 519.97 C 982.24 519.87, 981.29 519.65, 979.77 519.28 C 978.26 518.91, 977.52 518.58, 976.60 518.13 C 975.68 517.68, 975.43 517.52, 975.16 517.02 C 974.90 516.53, 975.32 516.17, 975.28 515.65 C 975.25 515.13, 975.19 514.97, 974.99 514.44 C 974.78 513.91, 974.85 513.54, 974.27 513.01 C 973.69 512.48, 972.94 511.83, 972.08 511.79 C 971.22 511.76, 970.60 512.08, 969.99 512.85 C 969.37 513.63, 969.03 514.28, 969.00 515.67 C 968.97 517.06, 969.03 518.23, 969.84 519.79 C 970.65 521.35, 971.45 522.25, 973.03 523.47 C 974.62 524.70, 975.66 525.19, 977.78 525.92 C 979.90 526.64, 981.16 526.87, 983.64 527.09 C 986.12 527.30, 987.50 527.28, 990.17 526.99 C 992.84 526.71, 994.27 526.44, 996.98 525.65 C 999.69 524.87, 1001.10 524.36, 1003.73 523.05 C 1006.35 521.75, 1007.68 520.96, 1010.09 519.15 C 1012.50 517.34, 1013.69 516.28, 1015.77 514.01 C 1017.86 511.75, 1018.80 510.45, 1020.51 507.82 C 1022.22 505.18, 1022.94 503.73, 1024.33 500.85 C 1025.71 497.97, 1026.31 496.43, 1027.44 493.43 C 1028.57 490.42, 1029.00 488.84, 1029.98 485.83 C 1030.96 482.82, 1031.37 481.24, 1032.33 478.38 C 1033.29 475.52, 1033.85 474.08, 1034.76 471.52 C 1035.68 468.95, 1036.19 467.64, 1036.92 465.55 C 1037.64 463.45, 1038.16 462.62, 1038.38 461.03 C 1038.61 459.45, 1038.51 458.79, 1038.03 457.63 C 1037.55 456.47, 1036.93 455.85, 1036.00 455.25 C 1035.07 454.66, 1034.55 454.48, 1033.37 454.65 C 1032.18 454.83, 1031.66 455.34, 1030.09 456.14 C 1028.52 456.95, 1027.59 457.63, 1025.51 458.70 C 1023.43 459.77, 1022.07 460.44, 1019.67 461.50 C 1017.27 462.55, 1015.85 463.16, 1013.50 463.98 C 1011.15 464.80, 1009.89 465.08, 1007.94 465.58 C 1005.99 466.08, 1005.03 466.18, 1003.73 466.49 C 1002.43 466.79, 1001.99 466.99, 1001.44 467.10 C 1000.89 467.21, 1000.83 467.32, 1000.97 467.04 C 1001.11 466.76, 1001.34 466.51, 1002.14 465.72 C 1002.95 464.92, 1003.58 464.23, 1005.01 463.07 C 1006.44 461.91, 1007.42 461.11, 1009.28 459.91 C 1011.14 458.72, 1012.35 458.06, 1014.31 457.10 C 1016.27 456.14, 1017.41 455.68, 1019.09 455.13 C 1020.77 454.59, 1021.51 454.48, 1022.71 454.37 C 1023.92 454.26, 1024.32 454.54, 1025.13 454.58 C 1025.94 454.62, 1026.08 454.66, 1026.78 454.56 C 1027.49 454.45, 1027.87 454.62, 1028.65 454.06 C 1029.43 453.49, 1030.39 452.71, 1030.68 451.72"
     style="stroke: black; fill: black;"
     id="path36" />
  <path
     d="M 1188.65,407.67 C 1187.66 407.56, 1187.21 407.77, 1185.89 408.67 C 1184.56 409.57, 1183.59 409.98, 1182.01 412.18 C 1180.44 414.38, 1180.04 416.26, 1178.02 419.67 C 1176.00 423.09, 1174.78 425.17, 1171.92 429.25 C 1169.06 433.33, 1167.24 435.64, 1163.72 440.07 C 1160.20 444.50, 1158.10 446.94, 1154.32 451.40 C 1150.54 455.85, 1148.48 458.20, 1144.81 462.34 C 1141.14 466.48, 1139.23 468.60, 1135.98 472.08 C 1132.72 475.57, 1131.06 477.17, 1128.54 479.76 C 1126.03 482.35, 1124.88 483.32, 1123.41 485.01 C 1121.93 486.71, 1121.67 487.27, 1121.17 488.23 C 1120.67 489.20, 1120.71 489.38, 1120.91 489.85 C 1121.11 490.31, 1121.77 490.47, 1122.16 490.58 C 1122.55 490.69, 1123.28 490.61, 1122.85 490.39 C 1122.42 490.17, 1120.53 489.46, 1120.03 489.50 C 1119.52 489.54, 1119.93 490.14, 1120.32 490.58 C 1120.70 491.01, 1121.21 491.52, 1121.96 491.67 C 1122.71 491.82, 1122.96 491.88, 1124.07 491.33 C 1125.19 490.78, 1125.88 490.55, 1127.54 488.92 C 1129.20 487.29, 1130.06 486.01, 1132.38 483.20 C 1134.70 480.40, 1136.09 478.56, 1139.15 474.89 C 1142.22 471.22, 1144.10 469.07, 1147.71 464.87 C 1151.32 460.67, 1153.38 458.31, 1157.21 453.87 C 1161.04 449.43, 1163.17 447.01, 1166.87 442.67 C 1170.58 438.33, 1172.49 436.04, 1175.73 432.18 C 1178.98 428.31, 1180.47 426.37, 1183.10 423.33 C 1185.73 420.29, 1187.33 419.22, 1188.87 416.98 C 1190.41 414.73, 1190.41 413.65, 1190.79 412.10 C 1191.18 410.55, 1191.24 410.11, 1190.81 409.22 C 1190.38 408.33, 1189.63 407.78, 1188.65 407.67"
     style="stroke: black; fill: black;"
     id="path38" />
  <path
     d="M 1178.52,412.05 C 1177.81 412.47, 1177.71 412.52, 1177.24 413.34 C 1176.78 414.16, 1176.45 414.57, 1176.21 416.16 C 1175.97 417.74, 1175.99 418.82, 1176.04 421.28 C 1176.09 423.73, 1176.42 425.31, 1176.47 428.42 C 1176.52 431.53, 1176.48 433.35, 1176.29 436.83 C 1176.09 440.30, 1175.84 442.24, 1175.50 445.81 C 1175.15 449.37, 1174.94 451.23, 1174.56 454.64 C 1174.18 458.06, 1173.86 459.79, 1173.58 462.89 C 1173.29 465.98, 1173.17 467.51, 1173.14 470.12 C 1173.11 472.74, 1173.08 473.92, 1173.42 475.95 C 1173.76 477.98, 1174.13 479.06, 1174.85 480.26 C 1175.58 481.47, 1176.25 481.78, 1177.03 481.99 C 1177.82 482.19, 1178.29 481.82, 1178.78 481.28 C 1179.27 480.75, 1179.23 480.46, 1179.47 479.32 C 1179.71 478.17, 1179.87 477.36, 1179.97 475.55 C 1180.08 473.73, 1179.96 472.66, 1180.00 470.22 C 1180.04 467.78, 1180.05 466.34, 1180.19 463.34 C 1180.33 460.35, 1180.41 458.62, 1180.69 455.24 C 1180.97 451.87, 1181.16 450.02, 1181.58 446.46 C 1182.00 442.91, 1182.29 440.99, 1182.80 437.48 C 1183.31 433.98, 1183.65 432.16, 1184.13 428.94 C 1184.61 425.72, 1185.07 424.06, 1185.19 421.40 C 1185.31 418.73, 1185.19 417.44, 1184.73 415.61 C 1184.27 413.78, 1183.67 413.14, 1182.89 412.26 C 1182.10 411.39, 1181.68 411.29, 1180.80 411.25 C 1179.93 411.20, 1179.23 411.63, 1178.52 412.05"
     style="stroke: black; fill: black;"
     id="path40" />
  <path
     d="M 1144.61,456.86 C 1145.35 457.51, 1145.79 457.48, 1147.21 457.63 C 1148.62 457.77, 1149.46 457.87, 1151.67 457.57 C 1153.89 457.27, 1155.31 456.73, 1158.29 456.12 C 1161.28 455.50, 1163.17 455.01, 1166.58 454.48 C 1170.00 453.96, 1171.95 453.75, 1175.38 453.50 C 1178.81 453.25, 1180.78 453.46, 1183.72 453.24 C 1186.67 453.03, 1188.03 452.88, 1190.10 452.43 C 1192.18 451.98, 1193.28 451.75, 1194.10 451.00 C 1194.92 450.25, 1194.99 449.50, 1194.20 448.68 C 1193.41 447.86, 1192.31 447.38, 1190.16 446.89 C 1188.01 446.40, 1186.50 446.20, 1183.44 446.23 C 1180.38 446.26, 1178.38 446.74, 1174.87 447.04 C 1171.36 447.34, 1169.42 447.52, 1165.87 447.73 C 1162.32 447.94, 1160.34 447.81, 1157.12 448.09 C 1153.91 448.38, 1152.19 448.44, 1149.81 449.16 C 1147.43 449.88, 1146.48 450.65, 1145.22 451.68 C 1143.96 452.72, 1143.63 453.31, 1143.51 454.34 C 1143.39 455.38, 1143.87 456.20, 1144.61 456.86"
     style="stroke: black; fill: black;"
     id="path42" />
  <path
     d="M 1215.01,453.98 C 1214.01 454.08, 1213.64 454.39, 1212.69 455.27 C 1211.75 456.14, 1211.20 456.79, 1210.29 458.37 C 1209.39 459.95, 1208.96 461.16, 1208.17 463.17 C 1207.38 465.17, 1207.04 466.46, 1206.33 468.39 C 1205.63 470.32, 1205.04 471.29, 1204.66 472.81 C 1204.28 474.33, 1204.11 475.03, 1204.44 475.98 C 1204.77 476.93, 1205.36 477.37, 1206.30 477.56 C 1207.23 477.75, 1208.09 477.65, 1209.12 476.91 C 1210.16 476.18, 1210.59 475.43, 1211.47 473.87 C 1212.35 472.30, 1212.53 471.08, 1213.51 469.11 C 1214.49 467.13, 1215.03 465.92, 1216.38 463.98 C 1217.73 462.05, 1218.56 461.07, 1220.26 459.43 C 1221.95 457.79, 1222.98 457.04, 1224.86 455.80 C 1226.75 454.56, 1227.80 454.02, 1229.69 453.23 C 1231.59 452.44, 1232.55 452.18, 1234.34 451.84 C 1236.14 451.51, 1237.02 451.53, 1238.67 451.54 C 1240.31 451.56, 1240.97 451.94, 1242.57 451.93 C 1244.18 451.92, 1245.69 452.22, 1246.71 451.50 C 1247.73 450.78, 1248.22 449.54, 1247.67 448.34 C 1247.12 447.15, 1245.72 446.25, 1243.96 445.51 C 1242.20 444.78, 1241.04 444.77, 1238.88 444.67 C 1236.72 444.56, 1235.52 444.62, 1233.16 445.00 C 1230.80 445.38, 1229.54 445.67, 1227.09 446.58 C 1224.65 447.48, 1223.34 448.09, 1220.94 449.53 C 1218.55 450.97, 1217.31 451.89, 1215.13 453.78 C 1212.94 455.67, 1211.88 456.80, 1210.01 458.97 C 1208.13 461.15, 1207.19 462.40, 1205.75 464.64 C 1204.30 466.88, 1203.45 468.10, 1202.79 470.17 C 1202.12 472.25, 1202.03 473.42, 1202.41 475.01 C 1202.78 476.60, 1203.54 477.40, 1204.66 478.13 C 1205.78 478.85, 1206.73 479.00, 1208.02 478.65 C 1209.32 478.30, 1209.96 477.71, 1211.15 476.37 C 1212.33 475.04, 1212.85 473.90, 1213.95 471.98 C 1215.06 470.06, 1215.75 468.86, 1216.69 466.78 C 1217.63 464.71, 1218.22 463.50, 1218.66 461.61 C 1219.10 459.71, 1219.08 458.69, 1218.88 457.32 C 1218.68 455.95, 1218.46 455.42, 1217.68 454.75 C 1216.91 454.08, 1216.00 453.88, 1215.01 453.98"
     style="stroke: black; fill: black;"
     id="path44" />
  <path
     d="M 1283.35,449.20 C 1282.33 448.83, 1281.58 448.96, 1280.13 449.55 C 1278.68 450.15, 1277.77 450.72, 1276.10 452.18 C 1274.42 453.64, 1273.48 454.76, 1271.77 456.86 C 1270.05 458.96, 1269.23 460.35, 1267.51 462.68 C 1265.79 465.02, 1264.79 466.26, 1263.17 468.55 C 1261.56 470.84, 1260.71 472.03, 1259.44 474.14 C 1258.16 476.24, 1257.57 477.33, 1256.81 479.06 C 1256.04 480.79, 1255.86 481.59, 1255.62 482.80 C 1255.37 484.00, 1255.36 484.40, 1255.58 485.09 C 1255.80 485.77, 1256.33 485.99, 1256.73 486.23 C 1257.14 486.47, 1257.50 486.29, 1257.60 486.30 C 1257.71 486.31, 1257.15 486.23, 1257.25 486.27 C 1257.36 486.32, 1257.66 486.51, 1258.11 486.52 C 1258.57 486.52, 1259.00 486.61, 1259.53 486.31 C 1260.06 486.00, 1260.15 485.79, 1260.76 484.99 C 1261.37 484.18, 1261.64 483.62, 1262.59 482.26 C 1263.53 480.91, 1264.12 480.02, 1265.48 478.22 C 1266.85 476.41, 1267.72 475.33, 1269.40 473.24 C 1271.09 471.15, 1272.08 469.89, 1273.91 467.76 C 1275.74 465.63, 1276.84 464.52, 1278.54 462.57 C 1280.24 460.63, 1281.18 459.68, 1282.40 458.02 C 1283.62 456.36, 1284.07 455.60, 1284.63 454.28 C 1285.20 452.96, 1285.48 452.43, 1285.22 451.41 C 1284.96 450.40, 1284.36 449.57, 1283.35 449.20"
     style="stroke: black; fill: black;"
     id="path46" />
  <path
     d="M 1256.92,465.24 C 1256.65 466.19, 1256.80 466.64, 1257.21 467.58 C 1257.62 468.53, 1257.96 469.05, 1258.95 469.96 C 1259.95 470.87, 1260.72 471.26, 1262.18 472.14 C 1263.65 473.02, 1264.51 473.46, 1266.27 474.36 C 1268.03 475.25, 1269.04 475.76, 1271.00 476.62 C 1272.95 477.47, 1273.97 477.96, 1276.04 478.65 C 1278.11 479.34, 1279.37 479.72, 1281.35 480.08 C 1283.32 480.43, 1284.37 480.53, 1285.92 480.43 C 1287.47 480.33, 1288.12 480.03, 1289.10 479.58 C 1290.07 479.14, 1290.47 478.86, 1290.79 478.19 C 1291.12 477.51, 1291.02 476.86, 1290.72 476.21 C 1290.42 475.55, 1290.08 475.45, 1289.31 474.92 C 1288.54 474.39, 1288.12 474.05, 1286.87 473.56 C 1285.61 473.08, 1284.70 472.96, 1283.03 472.50 C 1281.36 472.04, 1280.25 471.87, 1278.51 471.28 C 1276.76 470.69, 1275.92 470.38, 1274.29 469.57 C 1272.66 468.75, 1271.85 468.18, 1270.35 467.21 C 1268.86 466.24, 1268.16 465.61, 1266.80 464.73 C 1265.44 463.85, 1264.76 463.33, 1263.56 462.82 C 1262.37 462.32, 1261.82 462.21, 1260.82 462.21 C 1259.82 462.21, 1259.35 462.22, 1258.57 462.82 C 1257.79 463.43, 1257.20 464.29, 1256.92 465.24"
     style="stroke: black; fill: black;"
     id="path48" />
  <path
     d="M 1313.48,456.14 C 1312.46 456.23, 1312.08 456.58, 1311.08 457.49 C 1310.09 458.40, 1309.48 459.04, 1308.52 460.69 C 1307.55 462.34, 1307.05 463.61, 1306.26 465.73 C 1305.46 467.85, 1305.15 469.17, 1304.55 471.29 C 1303.94 473.40, 1303.49 474.50, 1303.23 476.29 C 1302.98 478.09, 1303.05 479.00, 1303.27 480.27 C 1303.48 481.53, 1303.70 482.07, 1304.32 482.62 C 1304.94 483.16, 1305.60 483.23, 1306.37 482.99 C 1307.13 482.76, 1307.40 482.33, 1308.14 481.45 C 1308.88 480.56, 1309.24 479.99, 1310.06 478.55 C 1310.87 477.11, 1311.27 476.12, 1312.21 474.26 C 1313.15 472.40, 1313.83 471.26, 1314.75 469.23 C 1315.67 467.20, 1316.30 466.00, 1316.79 464.11 C 1317.29 462.22, 1317.34 461.20, 1317.22 459.79 C 1317.10 458.37, 1316.93 457.76, 1316.18 457.03 C 1315.44 456.30, 1314.50 456.04, 1313.48 456.14"
     style="stroke: black; fill: black;"
     id="path50" />
  <path
     d="M 1326.30,424.03 C 1327.33 423.71, 1327.89 423.70, 1327.84 423.70 C 1327.78 423.69, 1327.06 423.96, 1326.03 424.01 C 1325.01 424.06, 1323.74 423.77, 1322.71 423.95 C 1321.68 424.14, 1320.90 424.65, 1320.89 424.92 C 1320.89 425.20, 1321.60 425.49, 1322.68 425.31 C 1323.77 425.13, 1325.27 424.35, 1326.30 424.03"
     style="stroke: black; fill: black;"
     id="path52" />
  <path
     d="M 1343.04,449.49 C 1342.10 449.83, 1341.91 450.29, 1341.22 451.31 C 1340.52 452.32, 1340.19 452.91, 1339.58 454.58 C 1338.97 456.25, 1338.73 457.44, 1338.16 459.67 C 1337.60 461.89, 1337.32 463.23, 1336.75 465.71 C 1336.17 468.18, 1335.75 469.57, 1335.28 472.06 C 1334.81 474.54, 1334.48 475.84, 1334.38 478.12 C 1334.28 480.39, 1334.24 481.56, 1334.78 483.43 C 1335.31 485.31, 1335.77 486.27, 1337.05 487.50 C 1338.33 488.73, 1339.34 489.28, 1341.18 489.60 C 1343.02 489.91, 1344.14 489.82, 1346.24 489.09 C 1348.35 488.36, 1349.52 487.72, 1351.69 485.94 C 1353.86 484.16, 1354.80 482.71, 1357.10 480.20 C 1359.39 477.69, 1360.66 476.13, 1363.17 473.40 C 1365.68 470.66, 1367.15 469.09, 1369.63 466.52 C 1372.11 463.94, 1373.54 462.71, 1375.56 460.52 C 1377.59 458.33, 1378.43 457.24, 1379.74 455.56 C 1381.05 453.88, 1381.50 453.18, 1382.13 452.10 C 1382.75 451.02, 1382.83 450.75, 1382.85 450.17 C 1382.87 449.59, 1382.44 449.40, 1382.23 449.20 C 1382.02 449.00, 1381.68 449.30, 1381.81 449.15 C 1381.94 449.00, 1382.83 448.70, 1382.88 448.43 C 1382.93 448.16, 1382.55 447.97, 1382.07 447.80 C 1381.58 447.63, 1381.21 447.44, 1380.46 447.57 C 1379.70 447.71, 1379.40 447.74, 1378.30 448.47 C 1377.20 449.21, 1376.53 449.76, 1374.97 451.24 C 1373.41 452.73, 1372.49 453.71, 1370.51 455.90 C 1368.52 458.09, 1367.44 459.60, 1365.04 462.20 C 1362.65 464.81, 1361.15 466.37, 1358.54 468.91 C 1355.93 471.45, 1354.44 472.83, 1351.99 474.92 C 1349.53 477.01, 1348.12 477.82, 1346.27 479.35 C 1344.41 480.88, 1343.73 481.61, 1342.70 482.59 C 1341.67 483.56, 1341.49 483.88, 1341.11 484.23 C 1340.72 484.58, 1340.81 484.66, 1340.76 484.34 C 1340.72 484.02, 1340.74 483.69, 1340.89 482.63 C 1341.04 481.56, 1341.10 480.74, 1341.50 479.00 C 1341.89 477.25, 1342.21 476.11, 1342.87 473.90 C 1343.54 471.69, 1344.02 470.36, 1344.81 467.97 C 1345.60 465.58, 1346.18 464.28, 1346.82 461.95 C 1347.45 459.63, 1347.84 458.32, 1347.99 456.34 C 1348.15 454.36, 1348.00 453.41, 1347.59 452.07 C 1347.18 450.72, 1346.85 450.13, 1345.94 449.61 C 1345.04 449.10, 1343.99 449.15, 1343.04 449.49"
     style="stroke: black; fill: black;"
     id="path54" />
</svg>
